# xmcd
#
# Track frame offsets:
#  150
#  19481
#  37836
#  50692
#  70082
#  86171
#  97333
#  116528
#  145735
#  152713
#
# Disc length: 2276 seconds
#
# Revision: 1
# Processed by: cddbd v1.5.1PL0 Copyright (c) Steve Scherf et al.
# Submitted via: Collectorz.com Music Collector 6.9
#
DISCID=8808e20a
DTITLE=steve earle - Live At Sxsw
DYEAR=2000
DGENRE=Country
TTITLE0=Transendental Blues
TTITLE1=Everyone's In Love With You
TTITLE2=Another Town
TTITLE3=Steve's Last Ramble
TTITLE4=I Feel Allright
TTITLE5=Wherever I Go
TTITLE6=The Galway Girl
TTITLE7=Copperhead Road
TTITLE8=Band Introduction
TTITLE9=All Of My Life
EXTD=
EXTT0=
EXTT1=
EXTT2=
EXTT3=
EXTT4=
EXTT5=
EXTT6=
EXTT7=
EXTT8=
EXTT9=
PLAYORDER=
